<?xml version="1.0" encoding="UTF-8" standalone="no"?><svg xmlns="http://www.w3.org/2000/svg" xmlns:xlink="http://www.w3.org/1999/xlink" contentStyleType="text/css" height="359px" preserveAspectRatio="none" style="width:406px;height:359px;background:#FFFFFF;" version="1.1" viewBox="0 0 406 359" width="406px" zoomAndPan="magnify"><defs/><g><rect fill="#F1F1F1" height="36.2969" rx="12.5" ry="12.5" style="stroke:#181818;stroke-width:1.5;" width="75" x="162" y="160.7422"/><text fill="#000000" font-family="sans-serif" font-size="14" lengthAdjust="spacing" textLength="55" x="172" y="183.7373">DevOps</text><rect fill="#F1F1F1" height="36.2969" rx="12.5" ry="12.5" style="stroke:#181818;stroke-width:1.5;" width="80" x="287" y="20"/><text fill="#000000" font-family="sans-serif" font-size="14" lengthAdjust="spacing" textLength="60" x="297" y="42.9951">Flexibility</text><path d="M237,178.8906 L247,178.8906 C262,178.8906 262,38.1484 277,38.1484 L287,38.1484 " fill="none" style="stroke:#181818;stroke-width:1.0;"/><rect fill="#F1F1F1" height="36.2969" rx="12.5" ry="12.5" style="stroke:#181818;stroke-width:1.5;" width="107" x="287" y="76.2969"/><text fill="#000000" font-family="sans-serif" font-size="14" lengthAdjust="spacing" textLength="87" x="297" y="99.292">Observability</text><path d="M237,178.8906 L247,178.8906 C262,178.8906 262,94.4453 277,94.4453 L287,94.4453 " fill="none" style="stroke:#181818;stroke-width:1.0;"/><rect fill="#F1F1F1" height="36.2969" rx="12.5" ry="12.5" style="stroke:#181818;stroke-width:1.5;" width="83" x="287" y="132.5938"/><text fill="#000000" font-family="sans-serif" font-size="14" lengthAdjust="spacing" textLength="63" x="297" y="155.5889">Reliability</text><path d="M237,178.8906 L247,178.8906 C262,178.8906 262,150.7422 277,150.7422 L287,150.7422 " fill="none" style="stroke:#181818;stroke-width:1.0;"/><rect fill="#F1F1F1" height="36.2969" rx="12.5" ry="12.5" style="stroke:#181818;stroke-width:1.5;" width="98" x="287" y="188.8906"/><text fill="#000000" font-family="sans-serif" font-size="14" lengthAdjust="spacing" textLength="78" x="297" y="211.8857">Securability</text><path d="M237,178.8906 L247,178.8906 C262,178.8906 262,207.0391 277,207.0391 L287,207.0391 " fill="none" style="stroke:#181818;stroke-width:1.0;"/><rect fill="#F1F1F1" height="36.2969" rx="12.5" ry="12.5" style="stroke:#181818;stroke-width:1.5;" width="89" x="287" y="245.1875"/><text fill="#000000" font-family="sans-serif" font-size="14" lengthAdjust="spacing" textLength="69" x="297" y="268.1826">Testability</text><path d="M237,178.8906 L247,178.8906 C262,178.8906 262,263.3359 277,263.3359 L287,263.3359 " fill="none" style="stroke:#181818;stroke-width:1.0;"/><rect fill="#F1F1F1" height="36.2969" rx="12.5" ry="12.5" style="stroke:#181818;stroke-width:1.5;" width="86" x="287" y="301.4844"/><text fill="#000000" font-family="sans-serif" font-size="14" lengthAdjust="spacing" textLength="66" x="297" y="324.4795">Scalability</text><path d="M237,178.8906 L247,178.8906 C262,178.8906 262,319.6328 277,319.6328 L287,319.6328 " fill="none" style="stroke:#181818;stroke-width:1.0;"/><rect fill="#F1F1F1" height="36.2969" rx="12.5" ry="12.5" style="stroke:#181818;stroke-width:1.5;" width="102" x="10" y="48.1484"/><text fill="#000000" font-family="sans-serif" font-size="14" lengthAdjust="spacing" textLength="82" x="20" y="71.1436">Architecting</text><path d="M162,178.8906 L152,178.8906 C137,178.8906 137,66.2969 122,66.2969 L112,66.2969 " fill="none" style="stroke:#181818;stroke-width:1.0;"/><rect fill="#F1F1F1" height="36.2969" rx="12.5" ry="12.5" style="stroke:#181818;stroke-width:1.5;" width="98" x="14" y="104.4453"/><text fill="#000000" font-family="sans-serif" font-size="14" lengthAdjust="spacing" textLength="78" x="24" y="127.4404">Developing</text><path d="M162,178.8906 L152,178.8906 C137,178.8906 137,122.5938 122,122.5938 L112,122.5938 " fill="none" style="stroke:#181818;stroke-width:1.0;"/><rect fill="#F1F1F1" height="36.2969" rx="12.5" ry="12.5" style="stroke:#181818;stroke-width:1.5;" width="99" x="13" y="160.7422"/><text fill="#000000" font-family="sans-serif" font-size="14" lengthAdjust="spacing" textLength="79" x="23" y="183.7373">Automating</text><path d="M162,178.8906 L152,178.8906 C137,178.8906 137,178.8906 122,178.8906 L112,178.8906 " fill="none" style="stroke:#181818;stroke-width:1.0;"/><rect fill="#F1F1F1" height="36.2969" rx="12.5" ry="12.5" style="stroke:#181818;stroke-width:1.5;" width="89" x="23" y="217.0391"/><text fill="#000000" font-family="sans-serif" font-size="14" lengthAdjust="spacing" textLength="69" x="33" y="240.0342">Deploying</text><path d="M162,178.8906 L152,178.8906 C137,178.8906 137,235.1875 122,235.1875 L112,235.1875 " fill="none" style="stroke:#181818;stroke-width:1.0;"/><rect fill="#F1F1F1" height="36.2969" rx="12.5" ry="12.5" style="stroke:#181818;stroke-width:1.5;" width="88" x="24" y="273.3359"/><text fill="#000000" font-family="sans-serif" font-size="14" lengthAdjust="spacing" textLength="68" x="34" y="296.3311">Operating</text><path d="M162,178.8906 L152,178.8906 C137,178.8906 137,291.4844 122,291.4844 L112,291.4844 " fill="none" style="stroke:#181818;stroke-width:1.0;"/><!--MD5=[8398adf54f29541cd4814af00d252001]
@startmindmap devOpsRolesAttributes
* DevOps
** Flexibility
** Observability
** Reliability
** Securability
** Testability
** Scalability
left side
** Architecting
** Developing
** Automating
** Deploying
** Operating
@endmindmap

PlantUML version 1.2022.4(Sat Apr 09 16:29:17 EEST 2022)
(GPL source distribution)
Java Runtime: OpenJDK Runtime Environment
JVM: OpenJDK 64-Bit Server VM
Default Encoding: UTF-8
Language: en
Country: US
--></g></svg>